# xmcd
#
# Track frame offsets: 
#        150
#        21273
#        46288
#        66233
#        89408
#        112218
#        135875
#        155475
#        175455
#        192313
#        215870
#        239208
#
# Disc length: 3559 seconds
#
# Revision: 2
# Processed by: cddbd v1.5.2PL0 Copyright (c) Steve Scherf et al.
# Submitted via: ExactAudioCopy v1.0b3
#
DISCID=b80de50c
DTITLE=Si Phu - Co Tinh Nao Khong Phai
DYEAR=1988
DGENRE=Viet Nam
TTITLE0=Tu giong hat em
TTITLE1=Nguoi yeu toi khoc
TTITLE2=Va toi cung yeu em
TTITLE3=Tan vo
TTITLE4=Tuong tu 4
TTITLE5=Noi long
TTITLE6=Duong xa uot mua
TTITLE7=Tan tac
TTITLE8=Nguoi em sau mong
TTITLE9=Dem Xuan
TTITLE10=Nang Paris nang Saigon
TTITLE11=Tro ve di vang
EXTD=
EXTT0=
EXTT1=
EXTT2=
EXTT3=
EXTT4=
EXTT5=
EXTT6=
EXTT7=
EXTT8=
EXTT9=
EXTT10=
EXTT11=
PLAYORDER=
